<?xml version="1.0" encoding="utf-8"?>
<svg xmlns="http://www.w3.org/2000/svg" viewBox="0 0 100 100" width="400" height="400">
  <path fill="#eaa871" d="M60.5,21H70c3.866,0,7,3.134,7,7v54c0,3.866-3.134,7-7,7H26c-3.866,0-7-3.134-7-7V28 c0-3.866,3.134-7,7-7h8" />
  <path fill="#fefdef" d="M71,76v3c0,0-1.843,3.5-3.5,3.5h-39c-1.657,0-3-1.343-3-3v-48c0-1.657,1.343-3,3-3h39 c1.657,0,3.5,3.5,3.5,3.5v28" />
  <path fill="#1f212b" d="M76,37v44c0,3.866-3.134,7-7,7H27c-3.866,0-7-3.134-7-7V29c0-3.866,3.134-7,7-7h35.5 c0.552,0,1-0.448,1-1v0c0-0.552-0.448-1-1-1H27c-4.971,0-9,4.029-9,9v52c0,4.971,4.029,9,9,9h42c4.971,0,9-4.029,9-9V37 c0-0.552-0.448-1-1-1l0,0C76.448,36,76,36.448,76,37z" />
  <path fill="#fff" d="M47.5,15.5c-1.105,0-2,0.895-2,2s0.895,2,2,2s2-0.895,2-2S48.605,15.5,47.5,15.5z" />
  <path fill="#1f212b" d="M70.5,75c-0.276,0-0.5,0.224-0.5,0.5v4c0,1.379-1.122,2.5-2.5,2.5h-39c-1.378,0-2.5-1.121-2.5-2.5 v-48c0-1.379,1.122-2.5,2.5-2.5h27c0.276,0,0.5-0.224,0.5-0.5S55.776,28,55.5,28h-27c-1.93,0-3.5,1.57-3.5,3.5v48 c0,1.93,1.57,3.5,3.5,3.5h39c1.93,0,3.5-1.57,3.5-3.5v-4C71,75.224,70.776,75,70.5,75z" />
  <path fill="#8f9eb6" d="M43,24h9h8.793C60.928,23.523,61,23.02,61,22.5c0-3.038-2.462-5.5-5.5-5.5 c-0.526,0-1.033,0.078-1.514,0.216C53.836,13.759,50.994,11,47.5,11s-6.336,2.759-6.486,6.216C40.533,17.078,40.026,17,39.5,17 c-3.038,0-5.5,2.462-5.5,5.5c0,0.52,0.072,1.023,0.207,1.5H43z" />
  <path fill="#fff" d="M47.5,15.5c-1.105,0-2,0.895-2,2s0.895,2,2,2s2-0.895,2-2S48.605,15.5,47.5,15.5z" />
  <path fill="#1f212b" d="M70.5,68c-0.276,0-0.5-0.224-0.5-0.5v-4c0-0.276,0.224-0.5,0.5-0.5s0.5,0.224,0.5,0.5v4 C71,67.776,70.776,68,70.5,68z M70.5,73c-0.276,0-0.5-0.224-0.5-0.5v-2c0-0.276,0.224-0.5,0.5-0.5s0.5,0.224,0.5,0.5v2 C71,72.776,70.776,73,70.5,73z M60.793,25H34.207c-0.447,0-0.84-0.297-0.962-0.728C33.083,23.698,33,23.102,33,22.5 c0-3.584,2.916-6.5,6.5-6.5c0.216,0,0.434,0.012,0.65,0.033C40.832,12.571,43.866,10,47.5,10s6.668,2.571,7.35,6.033 C55.066,16.012,55.284,16,55.5,16c3.584,0,6.5,2.916,6.5,6.5c0,0.602-0.083,1.198-0.245,1.772C61.633,24.703,61.24,25,60.793,25z M35.027,23h24.945C59.991,22.835,60,22.668,60,22.5c0-2.481-2.019-4.5-4.5-4.5c-0.411,0-0.828,0.06-1.239,0.178 c-0.294,0.082-0.611,0.028-0.859-0.15c-0.249-0.18-0.401-0.462-0.415-0.769C52.859,14.311,50.449,12,47.5,12 s-5.359,2.311-5.487,5.259c-0.013,0.307-0.166,0.589-0.415,0.769s-0.565,0.232-0.859,0.15C40.328,18.06,39.911,18,39.5,18 c-2.481,0-4.5,2.019-4.5,4.5C35,22.668,35.009,22.835,35.027,23z" />
  <path fill="#1f212b" d="M47.5,20c-1.378,0-2.5-1.121-2.5-2.5s1.122-2.5,2.5-2.5s2.5,1.121,2.5,2.5S48.878,20,47.5,20z M47.5,16c-0.827,0-1.5,0.673-1.5,1.5s0.673,1.5,1.5,1.5s1.5-0.673,1.5-1.5S48.327,16,47.5,16z" />
  <g>
    <path fill="#fbb822" d="M88.697,20.29l-0.23,0.25l-31.52,31.52c-0.15,0.15-0.31,0.28-0.49,0.39 c-0.16,0.11-0.34,0.21-0.53,0.28c-2.47,0.96-11.94,4.65-12.04,4.7c-0.36,0.14-0.79,0.07-1.09-0.22c-0.29-0.3-0.36-0.73-0.22-1.09 c0.05-0.1,3.74-9.57,4.7-12.04c0.07-0.19,0.17-0.37,0.28-0.53c0.11-0.18,0.24-0.34,0.39-0.49l31.52-31.52l0.25-0.23 c1.03-1.02,4.03-1.62,7.32,1.66C90.317,16.26,89.717,19.26,88.697,20.29z" />
    <path fill="#fefdef" d="M56.457,52.45c-0.16,0.11-0.34,0.21-0.53,0.28c-2.47,0.96-11.94,4.65-12.04,4.7 c-0.36,0.14-0.79,0.07-1.09-0.22c-0.29-0.3-0.36-0.73-0.22-1.09c0.05-0.1,3.74-9.57,4.7-12.04c0.07-0.19,0.17-0.37,0.28-0.53 L56.457,52.45z" />
    <path fill="#444445" d="M44.166,52.159c-0.863,2.16-1.567,3.919-1.586,3.965c-0.146,0.361-0.073,0.791,0.22,1.083 c0.293,0.293,0.722,0.366,1.083,0.22c0.046-0.019,1.805-0.722,3.965-1.586L44.166,52.159z" />
    <path fill="#7a91c9" d="M74.007,17l4-4l9,9l-4,4L74.007,17z" />
    <path fill="#f58f8f" d="M87.037,12.97c-3.29-3.28-6.29-2.68-7.32-1.66l-0.25,0.23L78.007,13l9,9l1.46-1.46l0.23-0.25 C89.717,19.26,90.317,16.26,87.037,12.97z" />
    <path fill="#1f212b" d="M43.507,58c-0.39,0-0.772-0.152-1.06-0.44c-0.427-0.427-0.557-1.065-0.33-1.625 c0.044-0.111,1.805-4.622,3.208-8.218l1.489-3.817c0.176-0.452,0.44-0.855,0.784-1.199L79.38,10.942 c1.304-1.304,4.666-1.661,8.006,1.678c3.34,3.34,2.982,6.703,1.662,8.023l-0.212,0.233L57.305,52.409 c-0.344,0.344-0.748,0.608-1.199,0.784l-3.817,1.489c-3.596,1.403-8.107,3.164-8.219,3.208C43.888,57.964,43.696,58,43.507,58z M82.047,10.997c-0.931,0-1.628,0.32-1.976,0.668l-0.267,0.245L48.305,43.409c-0.246,0.246-0.434,0.534-0.56,0.855l-1.489,3.817 c-1.412,3.617-3.184,8.159-3.213,8.231c-0.076,0.186-0.033,0.399,0.11,0.542c0.143,0.142,0.355,0.185,0.542,0.11 c0.072-0.029,4.613-1.801,8.23-3.213l3.817-1.489c0.322-0.125,0.61-0.314,0.855-0.56l31.727-31.749 c0.823-0.824,1.479-3.5-1.646-6.625C84.903,11.552,83.272,10.997,82.047,10.997z" />
    <path fill="#1f212b" d="M43.654,52.354l0.707-0.707l4,4l-0.707,0.707L43.654,52.354z" />
    <path fill="#1f212b" d="M44.029,52.729l0.707-0.707l3.25,3.25l-0.707,0.707L44.029,52.729z" />
    <path fill="#1f212b" d="M83.007,26.5c-0.128,0-0.256-0.049-0.354-0.146l-9-9c-0.195-0.195-0.195-0.512,0-0.707 s0.512-0.195,0.707,0l9,9c0.195,0.195,0.195,0.512,0,0.707C83.263,26.451,83.135,26.5,83.007,26.5z M83.507,19 c-0.128,0-0.256-0.049-0.354-0.146l-5.5-5.5c-0.195-0.195-0.195-0.512,0-0.707s0.512-0.195,0.707,0l5.5,5.5 c0.195,0.195,0.195,0.512,0,0.707C83.763,18.951,83.635,19,83.507,19z M87.007,22.5c-0.128,0-0.256-0.049-0.354-0.146l-1.5-1.5 c-0.195-0.195-0.195-0.512,0-0.707s0.512-0.195,0.707,0l1.5,1.5c0.195,0.195,0.195,0.512,0,0.707 C87.263,22.451,87.135,22.5,87.007,22.5z M85.007,24.5c-0.128,0-0.256-0.049-0.354-0.146l-9-9c-0.195-0.195-0.195-0.512,0-0.707 s0.512-0.195,0.707,0l9,9c0.195,0.195,0.195,0.512,0,0.707C85.263,24.451,85.135,24.5,85.007,24.5z" />
    <path fill="#1f212b" d="M56.507,41c-0.128,0-0.256-0.049-0.354-0.146c-0.195-0.195-0.195-0.512,0-0.707l20.5-20.5 c0.195-0.195,0.512-0.195,0.707,0s0.195,0.512,0,0.707l-20.5,20.5C56.763,40.951,56.635,41,56.507,41z M53.507,50 c-0.128,0-0.256-0.049-0.354-0.146c-0.195-0.195-0.195-0.512,0-0.707l21-21c0.195-0.195,0.512-0.195,0.707,0s0.195,0.512,0,0.707 l-21,21C53.763,49.951,53.635,50,53.507,50z M76.507,27c-0.128,0-0.256-0.049-0.354-0.146c-0.195-0.195-0.195-0.512,0-0.707 l3.5-3.5c0.195-0.195,0.512-0.195,0.707,0s0.195,0.512,0,0.707l-3.5,3.5C76.763,26.951,76.635,27,76.507,27z M52.507,45 c-0.128,0-0.256-0.049-0.354-0.146c-0.195-0.195-0.195-0.512,0-0.707l2-2c0.195-0.195,0.512-0.195,0.707,0s0.195,0.512,0,0.707 l-2,2C52.763,44.951,52.635,45,52.507,45z" />
    <path fill="#1f212b" d="M47.154,43.854l0.707-0.707l9,9l-0.707,0.707L47.154,43.854z" />
  </g>
  <g>
    <path fill="#1f212b" d="M70.5,61c-0.276,0-0.5-0.224-0.5-0.5v-17c0-0.276,0.224-0.5,0.5-0.5s0.5,0.224,0.5,0.5v17 C71,60.776,70.776,61,70.5,61z" />
  </g>
</svg>